<svg viewBox="0 0 12 12" xmlns="http://www.w3.org/2000/svg" xmlns:xlink="http://www.w3.org/1999/xlink" width="12.000000" height="12.000000" fill="none" customFrame="#000000">
	<rect id="box" width="12.000000" height="12.000000" x="0.000000" y="0.000000" />
	<path id="矢量 47" d="M10.3658 3.50059C10.278 3.34877 10.1519 3.22269 10 3.13501L6.5 1.13501C6.34798 1.04724 6.17554 1.00104 6 1.00104C5.82446 1.00104 5.65202 1.04724 5.5 1.13501L2 3.13501C1.84813 3.22269 1.72199 3.34877 1.63423 3.50059C1.54647 3.65242 1.50018 3.82465 1.5 4.00001L1.5 8.00001C1.50018 8.17537 1.54647 8.34761 1.63423 8.49943C1.72199 8.65125 1.84813 8.77733 2 8.86501L5.5 10.865C5.65202 10.9528 5.82446 10.999 6 10.999C6.17554 10.999 6.34798 10.9528 6.5 10.865L10 8.86501C10.1519 8.77733 10.278 8.65125 10.3658 8.49943C10.4535 8.34761 10.4998 8.17537 10.5 8.00001L10.5 4.00001C10.4998 3.82465 10.4535 3.65242 10.3658 3.50059Z" fill-rule="nonzero" stroke="rgb(139,148,158)" stroke-linecap="round" stroke-linejoin="round" stroke-width="1.000000" />
	<path id="矢量 48" d="M1.65002 3.5L6.00002 6L10.35 3.5" fill-rule="nonzero" stroke="rgb(139,148,158)" stroke-linecap="round" stroke-linejoin="round" stroke-width="1.000000" />
	<path id="矢量 49" d="M6 11L6 6" stroke="rgb(139,148,158)" stroke-linecap="round" stroke-linejoin="round" stroke-width="1.000000" />
</svg>
