<svg viewBox="0 0 12 12" xmlns="http://www.w3.org/2000/svg" xmlns:xlink="http://www.w3.org/1999/xlink" width="12.000000" height="12.000000" fill="none" customFrame="#000000">
	<rect id="download" width="12.000000" height="12.000000" x="0.000000" y="0.000000" />
	<path id="矢量 44" d="M6 7.5L6 1.5" stroke="rgb(13,17,23)" stroke-linecap="round" stroke-linejoin="round" stroke-width="1.000000" />
	<path id="矢量 45" d="M10.5 7.5L10.5 9.5C10.5 9.67554 10.4538 9.84798 10.366 10C10.2783 10.152 10.152 10.2783 10 10.366C9.84798 10.4538 9.67554 10.5 9.5 10.5L2.5 10.5C2.32446 10.5 2.15202 10.4538 2 10.366C1.84798 10.2783 1.72174 10.152 1.63397 10C1.54621 9.84798 1.5 9.67554 1.5 9.5L1.5 7.5" fill-rule="nonzero" stroke="rgb(13,17,23)" stroke-linecap="round" stroke-linejoin="round" stroke-width="1.000000" />
	<path id="矢量 46" d="M3.5 5L6 7.5L8.5 5" fill-rule="nonzero" stroke="rgb(13,17,23)" stroke-linecap="round" stroke-linejoin="round" stroke-width="1.000000" />
</svg>
