<svg viewBox="0 0 13 13" xmlns="http://www.w3.org/2000/svg" xmlns:xlink="http://www.w3.org/1999/xlink" width="13.000000" height="13.000000" fill="none" customFrame="#000000">
	<rect id="file-plus" width="13.000000" height="13.000000" x="0.000000" y="0.000000" />
	<path id="矢量 4" d="M2.70829 11.7715C2.54361 11.6764 2.40685 11.5397 2.31177 11.375C2.21668 11.2103 2.16663 11.0235 2.16663 10.8333L2.16663 2.16666C2.16663 1.9765 2.21668 1.78968 2.31177 1.625C2.40685 1.46031 2.54361 1.32355 2.70829 1.22847C2.87298 1.13339 3.05979 1.08333 3.24996 1.08333L7.58329 1.08333C7.75476 1.08305 7.92459 1.1167 8.083 1.18233C8.24141 1.24796 8.38527 1.34428 8.50629 1.46575L10.4498 3.40925C10.5716 3.53031 10.6682 3.67431 10.734 3.83292C10.7998 3.99153 10.8336 4.1616 10.8333 4.33333L10.8333 10.8333C10.8333 11.0235 10.7832 11.2103 10.6882 11.375C10.5931 11.5397 10.4563 11.6764 10.2916 11.7715C10.1269 11.8666 9.94012 11.9167 9.74996 11.9167L3.24996 11.9167C3.05979 11.9167 2.87298 11.8666 2.70829 11.7715Z" fill-rule="nonzero" stroke="rgb(139,148,158)" stroke-linecap="round" stroke-linejoin="round" stroke-width="1.083333" />
	<path id="矢量 5" d="M7.58337 1.08334L7.58337 3.79168C7.58337 3.88676 7.6084 3.98017 7.65594 4.06251C7.70348 4.14485 7.77186 4.21323 7.85421 4.26077C7.93655 4.30832 8.02996 4.33334 8.12504 4.33334L10.8334 4.33334" fill-rule="nonzero" stroke="rgb(139,148,158)" stroke-linecap="round" stroke-linejoin="round" stroke-width="1.083333" />
	<path id="矢量 6" d="M4.875 8.125L8.125 8.125" stroke="rgb(139,148,158)" stroke-linecap="round" stroke-linejoin="round" stroke-width="1.083333" />
	<path id="矢量 7" d="M6.5 9.75L6.5 6.5" stroke="rgb(139,148,158)" stroke-linecap="round" stroke-linejoin="round" stroke-width="1.083333" />
</svg>
