<svg viewBox="0 0 16 16" xmlns="http://www.w3.org/2000/svg" xmlns:xlink="http://www.w3.org/1999/xlink" width="16.000000" height="16.000000" fill="none" customFrame="#000000">
	<rect id="file" width="16.000000" height="16.000000" x="0.000000" y="0.000000" />
	<path id="矢量 62" d="M3.33335 14.4881C3.13066 14.3711 2.96234 14.2027 2.84532 14C2.7283 13.7974 2.66669 13.5674 2.66669 13.3334L2.66669 2.66671C2.66669 2.43266 2.7283 2.20273 2.84532 2.00004C2.96234 1.79735 3.13066 1.62903 3.33335 1.51201C3.53605 1.39498 3.76597 1.33338 4.00002 1.33338L9.33335 1.33338C9.54439 1.33303 9.75341 1.37444 9.94837 1.45522C10.1433 1.536 10.3204 1.65455 10.4694 1.80404L12.8614 4.19604C13.0112 4.34505 13.1301 4.52227 13.2111 4.71748C13.2922 4.91269 13.3337 5.12202 13.3334 5.33338L13.3334 13.3334C13.3334 13.5674 13.2717 13.7974 13.1547 14C13.0377 14.2027 12.8694 14.3711 12.6667 14.4881C12.464 14.6051 12.2341 14.6667 12 14.6667L4.00002 14.6667C3.76597 14.6667 3.53605 14.6051 3.33335 14.4881Z" fill-rule="nonzero" stroke="rgb(110,118,129)" stroke-linecap="round" stroke-linejoin="round" stroke-width="1.333333" />
	<path id="矢量 63" d="M9.33331 1.33337L9.33331 4.66671C9.33331 4.78373 9.36412 4.89869 9.42263 5.00004C9.48114 5.10139 9.5653 5.18554 9.66665 5.24406C9.76799 5.30257 9.88295 5.33337 9.99998 5.33337L13.3333 5.33337" fill-rule="nonzero" stroke="rgb(110,118,129)" stroke-linecap="round" stroke-linejoin="round" stroke-width="1.333333" />
</svg>
