<svg viewBox="0 0 16 16" xmlns="http://www.w3.org/2000/svg" xmlns:xlink="http://www.w3.org/1999/xlink" width="16.000000" height="16.000000" fill="none" customFrame="#000000">
	<rect id="file" width="16.000000" height="16.000000" x="0.000000" y="0.000000" />
	<path id="矢量 52" d="M3.33335 14.488C3.13066 14.371 2.96234 14.2027 2.84532 14C2.7283 13.7973 2.66669 13.5674 2.66669 13.3333L2.66669 2.66665C2.66669 2.4326 2.7283 2.20267 2.84532 1.99998C2.96234 1.79729 3.13066 1.62897 3.33335 1.51195C3.53605 1.39492 3.76597 1.33332 4.00002 1.33332L9.33335 1.33332C9.54439 1.33297 9.75341 1.37438 9.94837 1.45516C10.1433 1.53594 10.3204 1.65449 10.4694 1.80398L12.8614 4.19598C13.0112 4.34499 13.1301 4.52221 13.2111 4.71742C13.2922 4.91263 13.3337 5.12196 13.3334 5.33331L13.3334 13.3333C13.3334 13.5674 13.2717 13.7973 13.1547 14C13.0377 14.2027 12.8694 14.371 12.6667 14.488C12.464 14.605 12.2341 14.6666 12 14.6666L4.00002 14.6666C3.76597 14.6666 3.53605 14.605 3.33335 14.488Z" fill-rule="nonzero" stroke="rgb(248,81,73)" stroke-linecap="round" stroke-linejoin="round" stroke-width="1.333333" />
	<path id="矢量 53" d="M9.33331 1.33331L9.33331 4.66665C9.33331 4.78367 9.36412 4.89863 9.42263 4.99998C9.48114 5.10133 9.5653 5.18548 9.66665 5.244C9.76799 5.30251 9.88295 5.33331 9.99998 5.33331L13.3333 5.33331" fill-rule="nonzero" stroke="rgb(248,81,73)" stroke-linecap="round" stroke-linejoin="round" stroke-width="1.333333" />
</svg>
