<svg viewBox="0 0 13 13" xmlns="http://www.w3.org/2000/svg" xmlns:xlink="http://www.w3.org/1999/xlink" width="13.000000" height="13.000000" fill="none" customFrame="#000000">
	<rect id="folder-plus" width="13.000000" height="13.000000" x="0.000000" y="0.000000" />
	<path id="矢量 8" d="M6.5 5.41666L6.5 8.66666" stroke="rgb(139,148,158)" stroke-linecap="round" stroke-linejoin="round" stroke-width="1.083333" />
	<path id="矢量 9" d="M4.875 7.04166L8.125 7.04166" stroke="rgb(139,148,158)" stroke-linecap="round" stroke-linejoin="round" stroke-width="1.083333" />
	<path id="矢量 10" d="M11.375 10.6882C11.5397 10.5931 11.6764 10.4564 11.7715 10.2917C11.8666 10.127 11.9166 9.94017 11.9166 9.75L11.9166 4.33333C11.9166 4.14317 11.8666 3.95635 11.7715 3.79167C11.6764 3.62698 11.5397 3.49022 11.375 3.39514C11.2103 3.30006 11.0235 3.25 10.8333 3.25L6.55415 3.25C6.37297 3.25178 6.19423 3.20808 6.03431 3.12291C5.87438 3.03775 5.73838 2.91383 5.63873 2.7625L5.19998 2.1125C5.10134 1.96271 4.96705 1.83976 4.80917 1.75467C4.65128 1.66959 4.47475 1.62503 4.2954 1.625L2.16665 1.625C1.97648 1.625 1.78967 1.67506 1.62498 1.77014C1.46029 1.86522 1.32353 2.00198 1.22845 2.16667C1.13337 2.33135 1.08331 2.51817 1.08331 2.70833L1.08331 9.75C1.08331 9.94017 1.13337 10.127 1.22845 10.2917C1.32353 10.4564 1.46029 10.5931 1.62498 10.6882C1.78967 10.7833 1.97648 10.8333 2.16665 10.8333L10.8333 10.8333C11.0235 10.8333 11.2103 10.7833 11.375 10.6882Z" fill-rule="nonzero" stroke="rgb(139,148,158)" stroke-linecap="round" stroke-linejoin="round" stroke-width="1.083333" />
</svg>
