<svg viewBox="0 0 12 12" xmlns="http://www.w3.org/2000/svg" xmlns:xlink="http://www.w3.org/1999/xlink" width="12.000000" height="12.000000" fill="none" customFrame="#000000">
	<rect id="refresh-cw" width="12.000000" height="12.000000" x="0.000000" y="0.000000" />
	<path id="矢量 56" d="M1.5 6C1.5 5.21008 1.70793 4.43409 2.10289 3.75C2.49784 3.06591 3.06591 2.49784 3.75 2.10289C4.43409 1.70793 5.21009 1.5 6 1.5C6.62323 1.50235 7.24023 1.62417 7.81758 1.85888C8.39493 2.09359 8.92192 2.43683 9.37 2.87L10.5 4" fill-rule="nonzero" stroke="rgb(139,148,158)" stroke-linecap="round" stroke-linejoin="round" stroke-width="1.000000" />
	<path id="矢量 57" d="M10.5 1.5L10.5 4L8 4" fill-rule="nonzero" stroke="rgb(139,148,158)" stroke-linecap="round" stroke-linejoin="round" stroke-width="1.000000" />
	<path id="矢量 58" d="M10.5 6C10.5 6.78992 10.2921 7.56591 9.89711 8.25C9.50216 8.93409 8.93409 9.50216 8.25 9.89711C7.56591 10.2921 6.78992 10.5 6 10.5C5.37677 10.4977 4.75977 10.3758 4.18242 10.1411C3.60507 9.90641 3.07809 9.56318 2.63 9.13L1.5 8" fill-rule="nonzero" stroke="rgb(139,148,158)" stroke-linecap="round" stroke-linejoin="round" stroke-width="1.000000" />
	<path id="矢量 59" d="M4 8L1.5 8L1.5 10.5" fill-rule="nonzero" stroke="rgb(139,148,158)" stroke-linecap="round" stroke-linejoin="round" stroke-width="1.000000" />
</svg>
