<svg viewBox="0 0 13 13" xmlns="http://www.w3.org/2000/svg" xmlns:xlink="http://www.w3.org/1999/xlink" width="13.000000" height="13.000000" fill="none" customFrame="#000000">
	<rect id="trash-2" width="13.000000" height="13.000000" x="0.000000" y="0.000000" />
	<path id="矢量 13" d="M5.41675 5.95833L5.41675 9.20833" stroke="rgb(248,81,73)" stroke-linecap="round" stroke-linejoin="round" stroke-width="1.083333" />
	<path id="矢量 14" d="M7.58325 5.95833L7.58325 9.20833" stroke="rgb(248,81,73)" stroke-linecap="round" stroke-linejoin="round" stroke-width="1.083333" />
	<path id="矢量 15" d="M10.2916 3.25L10.2916 10.8333C10.2916 11.0235 10.2415 11.2103 10.1464 11.375C10.0514 11.5397 9.91461 11.6764 9.74992 11.7715C9.58523 11.8666 9.39842 11.9167 9.20825 11.9167L3.79159 11.9167C3.60142 11.9167 3.41461 11.8666 3.24992 11.7715C3.08523 11.6764 2.94847 11.5397 2.85339 11.375C2.75831 11.2103 2.70825 11.0235 2.70825 10.8333L2.70825 3.25" fill-rule="nonzero" stroke="rgb(248,81,73)" stroke-linecap="round" stroke-linejoin="round" stroke-width="1.083333" />
	<path id="矢量 16" d="M1.625 3.25L11.375 3.25" stroke="rgb(248,81,73)" stroke-linecap="round" stroke-linejoin="round" stroke-width="1.083333" />
	<path id="矢量 17" d="M4.33325 3.24999L4.33325 2.16666C4.33325 1.9765 4.38331 1.78968 4.47839 1.62499C4.57347 1.46031 4.71023 1.32355 4.87492 1.22847C5.03961 1.13338 5.22642 1.08333 5.41659 1.08333L7.58325 1.08333C7.77342 1.08333 7.96023 1.13338 8.12492 1.22847C8.28961 1.32355 8.42636 1.46031 8.52145 1.62499C8.61653 1.78968 8.66659 1.9765 8.66659 2.16666L8.66659 3.24999" fill-rule="nonzero" stroke="rgb(248,81,73)" stroke-linecap="round" stroke-linejoin="round" stroke-width="1.083333" />
</svg>
